<svg width="9.000000" height="16.000000" viewBox="0 0 9 16" xmlns="http://www.w3.org/2000/svg" xmlns:xlink="http://www.w3.org/1999/xlink"><defs/><path id="Vector" d="M3.68 1.88C4.57 1.88 5.3 2.64 5.3 3.57C5.3 4.49 4.57 5.25 3.68 5.25C2.78 5.25 2.05 4.49 2.05 3.57C2.05 2.64 2.78 1.88 3.68 1.88ZM3.68 7.62C5.85 7.62 7.61 5.8 7.61 3.57C7.61 1.33 5.85 -0.5 3.68 -0.5C1.5 -0.5 -0.26 1.33 -0.26 3.57C-0.26 5.8 1.5 7.62 3.68 7.62ZM5.27 10.94C6.07 10.75 6.84 10.42 7.55 9.96C8.09 9.61 8.25 8.88 7.91 8.32C7.57 7.76 6.86 7.59 6.32 7.95C4.71 8.99 2.64 8.99 1.03 7.95C0.49 7.59 -0.22 7.76 -0.56 8.32C-0.9 8.88 -0.74 9.61 -0.2 9.96C0.51 10.42 1.28 10.75 2.08 10.94L-0.12 13.21C-0.57 13.67 -0.57 14.43 -0.12 14.89C0.11 15.12 0.4 15.24 0.7 15.24C0.99 15.24 1.29 15.12 1.52 14.89L3.68 12.66L5.84 14.89C6.29 15.36 7.02 15.36 7.47 14.89C7.92 14.43 7.92 13.67 7.47 13.21L5.27 10.94Z" fill-opacity="1.000000" fill-rule="nonzero"/></svg>
