<svg width="25.000000" height="25.000000" viewBox="0 0 25 25" fill="none" xmlns="http://www.w3.org/2000/svg" xmlns:xlink="http://www.w3.org/1999/xlink">	<defs/><rect id="Одноклассники" width="25.000000" height="25.000000" fill="#FFFFFF" fill-opacity="0"/><path id="Vector" d="M12.5 0C5.59 0 0 5.59 0 12.5C0 19.4 5.59 25 12.5 25C19.4 25 25 19.4 25 12.5C25 5.59 19.4 0 12.5 0Z" fill="#FFFFFF" fill-opacity="1.000000" fill-rule="nonzero"/><path id="Vector" d="M12.68 6.88C13.57 6.88 14.3 7.64 14.3 8.57C14.3 9.49 13.57 10.25 12.68 10.25C11.78 10.25 11.05 9.49 11.05 8.57C11.05 7.64 11.78 6.88 12.68 6.88ZM12.68 12.62C14.85 12.62 16.61 10.8 16.61 8.57C16.61 6.33 14.85 4.5 12.68 4.5C10.5 4.5 8.74 6.33 8.74 8.57C8.74 10.8 10.5 12.62 12.68 12.62ZM14.27 15.94C15.07 15.75 15.84 15.42 16.55 14.96C17.09 14.61 17.25 13.88 16.91 13.32C16.57 12.76 15.86 12.59 15.32 12.95C13.71 13.99 11.64 13.99 10.03 12.95C9.49 12.59 8.78 12.76 8.44 13.32C8.1 13.88 8.26 14.61 8.8 14.96C9.51 15.42 10.28 15.75 11.08 15.94L8.88 18.21C8.43 18.67 8.43 19.43 8.88 19.89C9.11 20.12 9.4 20.24 9.7 20.24C9.99 20.24 10.29 20.12 10.52 19.89L12.68 17.66L14.84 19.89C15.29 20.36 16.02 20.36 16.47 19.89C16.92 19.43 16.92 18.67 16.47 18.21L14.27 15.94Z" fill="#030A1A" fill-opacity="1.000000" fill-rule="nonzero"/></svg>
