<svg width="14.000000" height="14.000000" viewBox="0 0 14 14" xmlns="http://www.w3.org/2000/svg" xmlns:xlink="http://www.w3.org/1999/xlink"><defs/><path id="Vector" d="M7.85 -0.45C7.4 -0.45 6.98 -0.22 6.71 0.1C6.45 0.43 6.3 0.83 6.19 1.24C6.02 1.92 5.97 2.66 5.95 3.34C4.7 3.42 3.57 3.79 2.63 4.36C2.25 4.04 1.79 3.86 1.34 3.87C0.84 3.87 0.37 4.09 0.01 4.54C-0.67 5.38 -0.59 6.77 0.2 7.6C0.15 7.85 0.11 8.11 0.11 8.38C0.11 11.18 2.97 13.44 6.5 13.44C10.02 13.44 12.88 11.17 12.88 8.38C12.88 8.11 12.84 7.85 12.79 7.6C13.58 6.77 13.66 5.38 12.98 4.54C12.62 4.09 12.15 3.87 11.65 3.87C11.2 3.86 10.74 4.04 10.36 4.36C9.42 3.79 8.3 3.42 7.05 3.34C7.07 2.72 7.11 2.07 7.24 1.59C7.32 1.28 7.41 1.06 7.51 0.94C7.61 0.82 7.68 0.77 7.85 0.77C8.21 0.77 8.25 0.88 8.47 1.17C8.58 1.31 8.71 1.49 8.91 1.66C9.11 1.84 9.41 1.99 9.74 1.99L9.74 0.77C9.65 0.77 9.63 0.77 9.57 0.71C9.51 0.66 9.42 0.53 9.3 0.37C9.05 0.04 8.57 -0.45 7.85 -0.45ZM11.36 -0.34C10.52 -0.34 9.84 0.43 9.84 1.38C9.84 2.32 10.52 3.09 11.36 3.09C12.2 3.09 12.88 2.32 12.88 1.38C12.88 0.43 12.2 -0.34 11.36 -0.34ZM11.36 0.27C11.9 0.27 12.34 0.77 12.34 1.38C12.34 1.99 11.9 2.48 11.36 2.48C10.82 2.48 10.38 1.99 10.38 1.38C10.38 0.77 10.82 0.27 11.36 0.27ZM6.5 4.29C9.49 4.29 12.02 6.16 12.02 8.38C12.02 10.6 9.49 12.47 6.5 12.47C3.5 12.47 0.97 10.6 0.97 8.38C0.97 6.16 3.5 4.29 6.5 4.29ZM1.36 4.84C1.51 4.84 1.67 4.88 1.82 4.95C1.28 5.42 0.84 5.95 0.55 6.55C0.35 6.08 0.4 5.49 0.65 5.18C0.83 4.95 1.09 4.84 1.36 4.84ZM11.63 4.84C11.91 4.84 12.16 4.95 12.34 5.18C12.59 5.49 12.64 6.08 12.44 6.55C12.15 5.95 11.72 5.42 11.17 4.95C11.32 4.88 11.48 4.84 11.63 4.84ZM4.33 6.36C3.79 6.36 3.35 6.86 3.35 7.47C3.35 8.07 3.79 8.57 4.33 8.57C4.87 8.57 5.31 8.07 5.31 7.47C5.31 6.86 4.87 6.36 4.33 6.36ZM8.66 6.36C8.12 6.36 7.68 6.86 7.68 7.47C7.68 8.07 8.12 8.57 8.66 8.57C9.2 8.57 9.64 8.07 9.64 7.47C9.64 6.86 9.2 6.36 8.66 6.36ZM3.81 10.11C4.15 10.91 5.22 11.69 6.5 11.69C7.77 11.69 8.85 10.91 9.2 10.11C8.57 10.56 7.59 10.87 6.5 10.87C5.4 10.87 4.43 10.56 3.81 10.11Z" fill-opacity="1.000000" fill-rule="nonzero"/></svg>
