<svg width="25.000000" height="25.000000" viewBox="0 0 25 25" fill="none" xmlns="http://www.w3.org/2000/svg" xmlns:xlink="http://www.w3.org/1999/xlink">
	<desc>
			Created with Pixso.
	</desc>
	<defs/>
	<rect id="Reddit" width="25.000000" height="25.000000" fill="#FFFFFF" fill-opacity="0"/>
	<path id="Vector" d="M12.5 0C5.59 0 0 5.59 0 12.5C0 19.4 5.59 25 12.5 25C19.4 25 25 19.4 25 12.5C25 5.59 19.4 0 12.5 0Z" fill="#FFFFFF" fill-opacity="1.000000" fill-rule="nonzero"/>
	<path id="Vector" d="M13.85 5.55C13.4 5.55 12.98 5.78 12.71 6.1C12.45 6.43 12.3 6.83 12.19 7.24C12.02 7.92 11.97 8.66 11.96 9.34C10.7 9.42 9.57 9.79 8.63 10.36C8.25 10.04 7.79 9.86 7.34 9.87C6.84 9.87 6.37 10.09 6.01 10.54C5.33 11.38 5.41 12.77 6.2 13.6C6.15 13.85 6.11 14.11 6.11 14.38C6.11 17.18 8.97 19.44 12.5 19.44C16.02 19.44 18.88 17.17 18.88 14.38C18.88 14.11 18.84 13.85 18.79 13.6C19.58 12.77 19.66 11.38 18.98 10.54C18.62 10.09 18.15 9.87 17.65 9.87C17.2 9.86 16.74 10.04 16.36 10.36C15.42 9.79 14.3 9.42 13.05 9.34C13.07 8.72 13.11 8.07 13.24 7.59C13.32 7.28 13.41 7.06 13.51 6.94C13.61 6.82 13.68 6.77 13.85 6.77C14.21 6.77 14.25 6.88 14.47 7.17C14.58 7.31 14.71 7.49 14.91 7.66C15.11 7.84 15.41 7.99 15.74 7.99L15.74 6.77C15.65 6.77 15.63 6.77 15.57 6.71C15.51 6.66 15.42 6.53 15.3 6.37C15.05 6.04 14.57 5.55 13.85 5.55ZM17.36 5.66C16.52 5.66 15.84 6.43 15.84 7.38C15.84 8.32 16.52 9.09 17.36 9.09C18.2 9.09 18.88 8.32 18.88 7.38C18.88 6.43 18.2 5.66 17.36 5.66ZM17.36 6.27C17.9 6.27 18.34 6.77 18.34 7.38C18.34 7.99 17.9 8.48 17.36 8.48C16.82 8.48 16.38 7.99 16.38 7.38C16.38 6.77 16.82 6.27 17.36 6.27ZM12.5 10.29C15.49 10.29 18.02 12.16 18.02 14.38C18.02 16.6 15.49 18.47 12.5 18.47C9.5 18.47 6.97 16.6 6.97 14.38C6.97 12.16 9.5 10.29 12.5 10.29ZM7.36 10.84C7.51 10.84 7.67 10.88 7.82 10.95C7.28 11.42 6.84 11.95 6.55 12.55C6.35 12.08 6.4 11.49 6.65 11.18C6.83 10.95 7.09 10.84 7.36 10.84ZM17.63 10.84C17.91 10.84 18.16 10.95 18.34 11.18C18.59 11.49 18.64 12.08 18.44 12.55C18.15 11.95 17.72 11.42 17.17 10.95C17.32 10.88 17.48 10.84 17.63 10.84ZM10.33 12.36C9.79 12.36 9.35 12.86 9.35 13.47C9.35 14.07 9.79 14.57 10.33 14.57C10.87 14.57 11.31 14.07 11.31 13.47C11.31 12.86 10.87 12.36 10.33 12.36ZM14.66 12.36C14.12 12.36 13.68 12.86 13.68 13.47C13.68 14.07 14.12 14.57 14.66 14.57C15.2 14.57 15.64 14.07 15.64 13.47C15.64 12.86 15.2 12.36 14.66 12.36ZM9.81 16.11C10.15 16.91 11.22 17.69 12.5 17.69C13.77 17.69 14.85 16.91 15.2 16.11C14.57 16.56 13.59 16.87 12.5 16.87C11.4 16.87 10.43 16.56 9.81 16.11Z" fill="#030A1A" fill-opacity="1.000000" fill-rule="nonzero"/>
</svg>
