<svg width="14.000000" height="20.000000" viewBox="0 0 14 20" fill="none" xmlns="http://www.w3.org/2000/svg" xmlns:xlink="http://www.w3.org/1999/xlink"><defs/><path id="рублик" d="M1.86 0L1.86 8.09L0 8.09L0 10.95L1.86 10.95L1.86 13.48L0 13.48L0 16.34L1.86 16.34L1.86 20L4.66 20L4.66 16.34L9.8 16.34L9.8 13.48L4.66 13.48L4.66 10.95L8.63 10.95C11.59 10.95 14 8.5 14 5.47C14 2.45 11.59 0 8.63 0L1.86 0ZM8.63 8.09L4.66 8.09L4.66 2.85L8.63 2.85C10.05 2.85 11.2 4.02 11.2 5.47C11.2 6.92 10.05 8.09 8.63 8.09Z" fill="#102654" fill-opacity="1.000000" fill-rule="evenodd"/>
</svg>
