<svg width="12.000000" height="7.000000" viewBox="0 0 12 7" xmlns="http://www.w3.org/2000/svg" xmlns:xlink="http://www.w3.org/1999/xlink"><defs/><path id="Shape" d="M6.72 5.05C7.16 4.9 7.73 5.99 8.33 6.41C8.78 6.72 9.13 6.66 9.13 6.66L10.74 6.63C10.74 6.63 11.58 6.58 11.18 5.91C11.15 5.86 10.95 5.42 9.98 4.51C8.98 3.57 9.11 3.72 10.33 2.08C11.07 1.09 11.36 0.48 11.27 0.22C11.18 -0.03 10.64 0.03 10.64 0.03L8.83 0.05C8.65 0.05 8.5 0.1 8.43 0.29C8.43 0.29 8.14 1.06 7.76 1.71C6.96 3.1 6.63 3.17 6.5 3.08C6.19 2.88 6.27 2.28 6.27 1.85C6.27 0.51 6.47 -0.05 5.88 -0.2C5.68 -0.24 5.54 -0.28 5.03 -0.28C4.39 -0.29 3.84 -0.28 3.53 -0.13C3.33 -0.03 3.17 0.2 3.26 0.21C3.38 0.23 3.65 0.29 3.8 0.49C3.98 0.74 3.98 1.31 3.98 1.31C3.98 1.31 4.08 2.89 3.73 3.09C3.48 3.22 3.15 2.95 2.43 1.69C2.06 1.05 1.79 0.34 1.79 0.34C1.79 0.34 1.73 0.21 1.64 0.14C1.52 0.05 1.36 0.02 1.36 0.02L-0.36 0.03C-0.36 0.03 -0.62 0.04 -0.72 0.16C-0.8 0.26 -0.72 0.46 -0.72 0.46C-0.72 0.46 0.62 3.65 2.15 5.26C3.55 6.73 5.14 6.63 5.14 6.63L5.86 6.63C5.86 6.63 6.07 6.61 6.19 6.49C6.29 6.38 6.28 6.17 6.28 6.17C6.28 6.17 6.27 5.19 6.72 5.05Z" fill-opacity="1.000000" fill-rule="nonzero"/></svg>
