<svg width="25.000000" height="25.000000" viewBox="0 0 25 25" fill="none" xmlns="http://www.w3.org/2000/svg" xmlns:xlink="http://www.w3.org/1999/xlink">
	<desc>
			Created with Pixso.
	</desc>
	<defs/>
	<path id="Vector" d="M12.5 0C5.59 0 0 5.59 0 12.5C0 19.4 5.59 25 12.5 25C19.4 25 25 19.4 25 12.5C25 5.59 19.4 0 12.5 0Z" fill="#FFFFFF" fill-opacity="1.000000" fill-rule="nonzero"/>
	<path id="Shape" d="M13.72 15.05C14.16 14.9 14.73 15.99 15.33 16.41C15.78 16.72 16.13 16.66 16.13 16.66L17.74 16.63C17.74 16.63 18.58 16.58 18.18 15.91C18.15 15.86 17.95 15.42 16.98 14.51C15.98 13.57 16.11 13.72 17.33 12.08C18.07 11.09 18.36 10.48 18.27 10.22C18.18 9.97 17.64 10.03 17.64 10.03L15.83 10.05C15.65 10.05 15.5 10.1 15.43 10.29C15.43 10.29 15.14 11.06 14.76 11.71C13.96 13.1 13.63 13.17 13.5 13.08C13.19 12.88 13.27 12.28 13.27 11.85C13.27 10.51 13.47 9.95 12.88 9.8C12.68 9.76 12.54 9.72 12.03 9.72C11.39 9.71 10.84 9.72 10.53 9.87C10.33 9.97 10.17 10.2 10.26 10.21C10.38 10.23 10.65 10.29 10.8 10.49C10.98 10.74 10.98 11.31 10.98 11.31C10.98 11.31 11.08 12.89 10.73 13.09C10.48 13.22 10.15 12.95 9.43 11.69C9.06 11.05 8.79 10.34 8.79 10.34C8.79 10.34 8.73 10.21 8.64 10.14C8.52 10.05 8.36 10.02 8.36 10.02L6.64 10.03C6.64 10.03 6.38 10.04 6.28 10.16C6.2 10.26 6.28 10.46 6.28 10.46C6.28 10.46 7.62 13.65 9.15 15.26C10.55 16.73 12.14 16.63 12.14 16.63L12.86 16.63C12.86 16.63 13.07 16.61 13.19 16.49C13.29 16.38 13.28 16.17 13.28 16.17C13.28 16.17 13.27 15.19 13.72 15.05Z" fill="#030A1A" fill-opacity="1.000000" fill-rule="nonzero"/>
</svg>
